PathFileType	4	(X/Y/Z)	/Users/itak/Documents/Research/Walk-IL/dataset/trc/00578_00009.trc
DataRate	CameraRate	NumFrames	NumMarkers	Units	OrigDataRate	OrigDataStartFrame	OrigNumFrames
100.000000	100.000000	4	53	mm	100.000000	64	517
Frame#	Time	RPSI			LPSI			L3			STRN			T10			C7			CLAV			RBAK			LBAK			LSHO			LUPA			LAEL			LAOL			LWTS			LWPS			LFRA			LIFD			LHPS			LHTS			RSHO			RUPA			RAEL			RAOL			RWTS			RWPS			RFRA			RIFD			RHTS			RHPS			RBHD			LFHD			RFHD			LBHD			LHIP			RHIP			RASI			LASI			LKNE			LTHI			LANK			LTIP			LTOE			LMT1			LMT5			LHEE			RKNE			RTHI			RANK			RTIP			RTOE			RMT1			RMT5			RHEE			
		X1	Y1	Z1	X2	Y2	Z2	X3	Y3	Z3	X4	Y4	Z4	X5	Y5	Z5	X6	Y6	Z6	X7	Y7	Z7	X8	Y8	Z8	X9	Y9	Z9	X10	Y10	Z10	X11	Y11	Z11	X12	Y12	Z12	X13	Y13	Z13	X14	Y14	Z14	X15	Y15	Z15	X16	Y16	Z16	X17	Y17	Z17	X18	Y18	Z18	X19	Y19	Z19	X20	Y20	Z20	X21	Y21	Z21	X22	Y22	Z22	X23	Y23	Z23	X24	Y24	Z24	X25	Y25	Z25	X26	Y26	Z26	X27	Y27	Z27	X28	Y28	Z28	X29	Y29	Z29	X30	Y30	Z30	X31	Y31	Z31	X32	Y32	Z32	X33	Y33	Z33	X34	Y34	Z34	X35	Y35	Z35	X36	Y36	Z36	X37	Y37	Z37	X38	Y38	Z38	X39	Y39	Z39	X40	Y40	Z40	X41	Y41	Z41	X42	Y42	Z42	X43	Y43	Z43	X44	Y44	Z44	X45	Y45	Z45	X46	Y46	Z46	X47	Y47	Z47	X48	Y48	Z48	X49	Y49	Z49	X50	Y50	Z50	X51	Y51	Z51	X52	Y52	Z52	X53	Y53	Z53	

65	0.64	-1204.7490234375	1012.943603515625	-159.2286529541016	-1126.5927734375	1018.041198730469	-267.7678833007812	-1160.328857421875	1101.776977539062	-214.5174255371094	-962.9031372070312	1293.107421875	-92.06806945800781	-1170.142944335938	1228.459838867188	-221.7481079101562	-1137.056030273438	1502.956420898438	-190.5110778808594	-980.9424438476562	1404.737060546875	-104.1422882080078	-1239.865966796875	1376.924438476562	-153.9732818603516	-1116.696044921875	1449.60888671875	-285.6701049804688	-991.1533203125	1474.529052734375	-304.7867736816406	-954.1478271484375	1347.163208007812	-374.3768005371094	-911.1646728515625	1128.195190429688	-369.6241455078125	-1011.048583984375	1113.743408203125	-381.1315307617188	-852.6630859375	898.2088623046875	-256.2208557128906	-842.606201171875	868.1159057617188	-337.3586730957031	-883.0169677734375	1044.5029296875	-354.8594665527344	-862.5300903320312	735.9610595703125	-249.0471801757812	-837.0757446289062	809.9225463867188	-320.438232421875	-823.7138671875	821.9871215820312	-254.4321136474609	-1169.935668945312	1468.399658203125	-27.4788875579834	-1220.555053710938	1402.973388671875	20.38848686218262	-1241.582763671875	1113.272705078125	59.92958450317383	-1277.007690429688	1096.3173828125	10.26636505126953	-1102.094360351562	894.2810668945312	89.04077911376953	-1174.527221679688	872.5811767578125	124.6596908569336	-1235.805786132812	1057.934448242188	71.15767669677734	-1094.767456054688	722.0934448242188	90.74068450927734	-1084.3525390625	802.8892822265625	115.5928955078125	-1157.750610351562	798.614501953125	131.1591339111328	-1105.2509765625	1685.354125976562	-100.1934967041016	-900.8947143554688	1710.998779296875	-140.3019409179688	-991.6715698242188	1712.73876953125	-23.1685619354248	-1000.244506835938	1681.554809570312	-226.6176910400391	-949.5894165039062	937.792724609375	-308.2231750488281	-1172.139282226562	933.73583984375	6.923167705535889	-1067.107299804688	965.5389404296875	9.491591453552246	-913.8292236328125	958.9548950195312	-219.8985290527344	-984.5376586914062	491.840087890625	-262.9552917480469	-954.2230224609375	656.57958984375	-286.9555358886719	-1069.174072265625	32.46517562866211	-307.998291015625	-1044.104370117188	250.6287994384766	-305.6466064453125	-914.0137939453125	36.62424087524414	-153.1042785644531	-995.6551513671875	38.81259918212891	-158.8086853027344	-955.6643676757812	35.05253601074219	-259.38134765625	-1156.022705078125	29.68807792663574	-294.9952392578125	-1108.517578125	491.2530517578125	-18.72914123535156	-1134.785888671875	778.8300170898438	26.61626434326172	-1208.757934570312	37.38768005371094	-110.5922927856445	-1108.98583984375	345.8884582519531	-39.54876327514648	-999.8020629882812	36.5460319519043	-23.80437088012695	-1030.765258789062	38.2086181640625	-94.97789001464844	-1107.525268554688	38.94553375244141	-22.7711296081543	-1223.32177734375	27.08999061584473	-185.5893402099609	
66	0.65	-1204.972045898438	1012.702697753906	-158.2491607666016	-1126.71484375	1017.958862304688	-266.6995544433594	-1160.5078125	1101.765502929688	-213.4569702148438	-963.0442504882812	1292.898681640625	-90.82986450195312	-1170.322509765625	1228.467529296875	-220.6701354980469	-1136.93505859375	1502.938232421875	-189.2254943847656	-980.9597778320312	1404.518798828125	-102.8616714477539	-1239.904052734375	1376.979736328125	-152.8195648193359	-1116.6337890625	1449.610717773438	-284.3808288574219	-991.0333251953125	1474.439575195312	-303.4906311035156	-954.2886962890625	1347.033935546875	-373.2356872558594	-911.9690551757812	1127.93359375	-368.9898986816406	-1011.889282226562	1113.87255859375	-380.2506103515625	-853.9922485351562	897.3905029296875	-256.5684509277344	-844.3270874023438	867.5521850585938	-337.8809814453125	-884.014892578125	1044.156494140625	-354.5824584960938	-864.2911987304688	734.9110107421875	-249.7592926025391	-838.9954223632812	809.1973266601562	-321.2449035644531	-825.453857421875	820.9109497070312	-255.2074584960938	-1169.923217773438	1468.257080078125	-26.24103355407715	-1220.634033203125	1402.866333007812	21.59741592407227	-1242.127563476562	1113.203125	60.95870971679688	-1277.42919921875	1096.348999023438	11.24068355560303	-1103.375122070312	893.6676025390625	89.96445465087891	-1175.944946289062	872.2450561523438	125.5979461669922	-1236.523559570312	1057.843627929688	72.16206359863281	-1096.715698242188	721.4558715820312	91.57365417480469	-1086.01513671875	802.1912841796875	116.486328125	-1159.481567382812	798.2061767578125	132.0634918212891	-1104.963134765625	1685.229736328125	-98.75095367431641	-900.4765014648438	1710.759765625	-138.9026794433594	-991.3358764648438	1712.429321289062	-21.72854423522949	-999.9403686523438	1681.376586914062	-225.1905975341797	-949.5013427734375	937.843994140625	-306.9031372070312	-1172.298461914062	933.5526733398438	8.14182186126709	-1067.51708984375	965.3200073242188	10.55703449249268	-913.9266967773438	958.9403686523438	-218.6679840087891	-984.2073364257812	491.8792724609375	-262.0093688964844	-954.0061645507812	656.6141357421875	-285.881591796875	-1069.180786132812	32.48667144775391	-307.9852294921875	-1043.97021484375	250.6843414306641	-305.1587829589844	-914.0197143554688	36.62925338745117	-153.1009216308594	-995.7003784179688	38.79973220825195	-158.7605438232422	-955.6765747070312	35.06378555297852	-259.3563537597656	-1156.030883789062	29.7003173828125	-294.9894714355469	-1108.079833984375	490.9793395996094	-18.0255069732666	-1135.105224609375	778.5546264648438	27.41529846191406	-1208.78173828125	37.35483551025391	-110.584228515625	-1108.676513671875	345.6538391113281	-38.96108627319336	-999.8003540039062	36.5577392578125	-23.86135482788086	-1030.757202148438	38.17071914672852	-95.03099060058594	-1107.512084960938	38.95999908447266	-22.8099365234375	-1223.36328125	27.04629325866699	-185.5675048828125	
67	0.66	-1205.187866210938	1012.460876464844	-157.2151184082031	-1126.805053710938	1017.883422851562	-265.5723266601562	-1160.65576171875	1101.76025390625	-212.3352966308594	-963.1648559570312	1292.696899414062	-89.55612182617188	-1170.491088867188	1228.478149414062	-219.5518798828125	-1136.80078125	1502.922607421875	-187.8884429931641	-980.9521484375	1404.304931640625	-101.5470733642578	-1239.928100585938	1377.031860351562	-151.6176147460938	-1116.551513671875	1449.613037109375	-283.0442504882812	-990.8992309570312	1474.34326171875	-302.1448669433594	-954.428955078125	1346.921997070312	-372.0602111816406	-912.8058471679688	1127.682495117188	-368.3702087402344	-1012.788391113281	1114.036743164062	-379.3741149902344	-855.4751586914062	896.5421142578125	-257.0214538574219	-846.1303100585938	866.9840698242188	-338.4887390136719	-885.078857421875	1043.817504882812	-354.3451232910156	-866.1403198242188	733.8361206054688	-250.5640411376953	-841.0335693359375	808.46142578125	-322.13427734375	-827.281005859375	819.8111572265625	-256.0773620605469	-1169.899780273438	1468.103393554688	-24.95015335083008	-1220.703735351562	1402.754150390625	22.85147094726562	-1242.640014648438	1113.12548828125	62.03195571899414	-1277.791748046875	1096.368408203125	12.26724910736084	-1104.6650390625	893.0308227539062	90.96571350097656	-1177.36865234375	871.8985595703125	126.5898742675781	-1237.209594726562	1057.747314453125	73.21082305908203	-1098.69970703125	720.7985229492188	92.47642517089844	-1087.697875976562	801.463623046875	117.4548034667969	-1161.2373046875	797.7869873046875	133.0181732177734	-1104.67236328125	1685.1044921875	-97.25521087646484	-900.0182495117188	1710.543090820312	-137.4719390869141	-990.9996948242188	1712.1220703125	-20.23773384094238	-999.6296997070312	1681.2099609375	-223.7093048095703	-949.351318359375	937.904296875	-305.4620056152344	-1172.561401367188	933.3575439453125	9.387795448303223	-1067.938598632812	965.1160888671875	11.68342876434326	-913.9991455078125	958.9158935546875	-217.3810119628906	-983.8546752929688	491.9378356933594	-260.9893188476562	-953.7841186523438	656.6397705078125	-284.7243347167969	-1069.188720703125	32.50833511352539	-307.9755859375	-1043.841552734375	250.7512817382812	-304.6351013183594	-914.0311279296875	36.6372184753418	-153.1023712158203	-995.7529296875	38.78936004638672	-158.7097930908203	-955.6941528320312	35.07703018188477	-259.3271179199219	-1156.040161132812	29.7073860168457	-294.9890747070312	-1107.685546875	490.7186889648438	-17.35664176940918	-1135.449340820312	778.3079833984375	28.23121643066406	-1208.814453125	37.31453323364258	-110.5633392333984	-1108.41650390625	345.4377746582031	-38.38623809814453	-999.8008422851562	36.56851959228516	-23.9190559387207	-1030.753051757812	38.13047027587891	-95.08949279785156	-1107.502197265625	38.97141647338867	-22.84452819824219	-1223.407104492188	26.98828506469727	-185.5504455566406	
68	0.67	-1205.391235351562	1012.219543457031	-156.1229400634766	-1126.8671875	1017.809997558594	-264.3897399902344	-1160.774780273438	1101.76171875	-211.1504821777344	-963.2667236328125	1292.501342773438	-88.24684143066406	-1170.64892578125	1228.494750976562	-218.3897247314453	-1136.655517578125	1502.909301757812	-186.4989929199219	-980.9234008789062	1404.098388671875	-100.1955032348633	-1239.940551757812	1377.082153320312	-150.3666534423828	-1116.447143554688	1449.6171875	-281.6607055664062	-990.7537231445312	1474.240600585938	-300.7479553222656	-954.5704956054688	1346.827392578125	-370.8500366210938	-913.6754150390625	1127.447875976562	-367.7616882324219	-1013.732971191406	1114.230346679688	-378.5014038085938	-857.0995483398438	895.6558837890625	-257.5758361816406	-848.013916015625	866.4148559570312	-339.1735229492188	-886.2013549804688	1043.480834960938	-354.142333984375	-868.069580078125	732.7517700195312	-251.4654083251953	-843.1802978515625	807.727294921875	-323.1034240722656	-829.1856689453125	818.7025756835938	-257.044677734375	-1169.867309570312	1467.945922851562	-23.60228157043457	-1220.76123046875	1402.641845703125	24.14764595031738	-1243.119140625	1113.040405273438	63.14646911621094	-1278.1025390625	1096.381225585938	13.33864879608154	-1105.960815429688	892.3778076171875	92.05174255371094	-1178.794921875	871.5439453125	127.6310195922852	-1237.864135742188	1057.647338867188	74.29978179931641	-1100.711791992188	720.1299438476562	93.45583343505859	-1089.395751953125	800.7158203125	118.5005722045898	-1163.008056640625	797.3619995117188	134.0225830078125	-1104.374145507812	1684.986206054688	-95.70840454101562	-899.5659790039062	1710.3193359375	-135.9764556884766	-990.658203125	1711.820068359375	-18.69606399536133	-999.3041381835938	1681.054443359375	-222.1734771728516	-949.1531372070312	937.9784545898438	-303.90966796875	-1172.901489257812	933.1416625976562	10.6845235824585	-1068.368286132812	964.9295654296875	12.86907958984375	-914.0494384765625	958.8903198242188	-216.0394134521484	-983.4647827148438	492.0134582519531	-259.8839111328125	-953.5411987304688	656.6661987304688	-283.49560546875	-1069.199829101562	32.53319549560547	-307.9705505371094	-1043.701904296875	250.8278198242188	-304.0683288574219	-914.0493774414062	36.64886856079102	-153.1082305908203	-995.802490234375	38.779052734375	-158.6679840087891	-955.7198486328125	35.09480667114258	-259.2920227050781	-1156.052001953125	29.7089958190918	-294.9931945800781	-1107.33935546875	490.4737548828125	-16.71695137023926	-1135.767822265625	778.0938720703125	29.07967376708984	-1208.858764648438	37.26705551147461	-110.5288848876953	-1108.203735351562	345.2334289550781	-37.82856369018555	-999.80419921875	36.57862091064453	-23.97897529602051	-1030.752685546875	38.09015655517578	-95.15447998046875	-1107.495727539062	38.97990417480469	-22.87655067443848	-1223.458374023438	26.9152946472168	-185.5384674072266	
